# xmcd
#
# Track frame offsets: 
#        150
#        13047
#        31197
#        50900
#        63827
#        80487
#        94442
#        108250
#        120442
#        139977
#        153977
#        167067
#
# Disc length: 2448 seconds
#
# Revision: 0
# Processed by: cddbd v1.4PL0 Copyright (c) Steve Scherf et al.
# Submitted via: ExactAudioCopy v0.90b4
#
DISCID=9a098e0c
DTITLE=Molasses Creek - Citybound
DYEAR=1996
DGENRE=Bluegrass
TTITLE0=This Old Hammer
TTITLE1=Glendale Train
TTITLE2=Midnight Moonlight
TTITLE3=You Are the Fire
TTITLE4=Blue Bayou
TTITLE5=Stand and Deliver
TTITLE6=Another Dance
TTITLE7=Morning Sky
TTITLE8=High on a Mountain
TTITLE9=Still Love Friday
TTITLE10=Ebo Walker
TTITLE11=Give Yourself to Love
EXTD=
EXTT0=
EXTT1=
EXTT2=
EXTT3=
EXTT4=
EXTT5=
EXTT6=
EXTT7=
EXTT8=
EXTT9=
EXTT10=
EXTT11=
PLAYORDER=
